/* XPM */
static char * iambickey_xpm[] = {
"160 80 91 1",
" 	c None",
".	c #151813",
"+	c #1E471E",
"@	c #5A6F68",
"#	c #769091",
"$	c #8DA4B2",
"%	c #C1CFD2",
"&	c #E0EBF0",
"*	c #9DB0B5",
"=	c #264B2C",
"-	c #1B311D",
";	c #FAE68A",
">	c #97BBCE",
",	c #D6E2E8",
"'	c #4F4C48",
")	c #3D3E3B",
"!	c #897C71",
"~	c #D1DEE3",
"{	c #BCC1C2",
"]	c #213825",
"^	c #7C888A",
"/	c #939087",
"(	c #FADA86",
"_	c #535C5B",
":	c #363C3D",
"<	c #F3D687",
"[	c #EEC371",
"}	c #767066",
"|	c #323A39",
"1	c #191E18",
"2	c #BDC8CA",
"3	c #716558",
"4	c #BDA990",
"5	c #C8D6DB",
"6	c #9D9180",
"7	c #C2C9CC",
"8	c #2E4D34",
"9	c #C6CED1",
"0	c #2E3736",
"a	c #536563",
"b	c #FAF0B8",
"c	c #ABB3B4",
"d	c #6B7F85",
"e	c #A29B8E",
"f	c #B4C7CE",
"g	c #9DA6A6",
"h	c #809AB3",
"i	c #ACBBBF",
"j	c #1A3E1A",
"k	c #3F5F47",
"l	c #767875",
"m	c #825332",
"n	c #C8D2D5",
"o	c #212524",
"p	c #D9CFB6",
"q	c #656E6E",
"r	c #CEDADE",
"s	c #929B9A",
"t	c #404949",
"u	c #606455",
"v	c #2B302F",
"w	c #F4F6EF",
"x	c #E4C080",
"y	c #9E886F",
"z	c #B4C2C6",
"A	c #697677",
"B	c #405648",
"C	c #DAE6EA",
"D	c #859193",
"E	c #8E877C",
"F	c #ECDAAB",
"G	c #ACA69C",
"H	c #C6CACE",
"I	c #6B523D",
"J	c #BBB2AB",
"K	c #CFD4D6",
"L	c #66422C",
"M	c #505553",
"N	c #1C421C",
"O	c #645D55",
"P	c #252A2A",
"Q	c #78807F",
"R	c #E6F3F7",
"S	c #435250",
"T	c #B4BCBE",
"U	c #F5E6C3",
"V	c #889B9F",
"W	c #FCFBF3",
"X	c #CEC8BA",
"Y	c #CACED2",
"Z	c #5F6768",
"2727H77H77H7777777H9H77H9HHHHHHH9Y9HH9HHYHHYHY99H9YYYH999HHHHH7H9YYHYHYYY9HH9999HHH9H7H99Y99YYY9HHHHHYYYYH797999997999YnYYYnnnnn9nn9Y999n997%72727222222{{{2{{T{",
"7{777{77H7777{X{77HHH7HHH9777HH9H9HH%HHH7HY99HHYHHYHHHHHHH79Y7H9H779HHHH9%99H77H9H777HHHHHHHHHHH999H9YHYH997%2777H9HY99Yn99YYYY999n99H9n97%%H%72777{22{{z2zz2f{2",
"7{7{H7{777{H{HHHH7H7777YHHHH7HHHHH9HHHHH777HHHHYYHH79HHYHHH7H77HHHH799HH97HYYY9HYYHH77HH9YH999YHHH7H%999HH9HY9777779Y999n99Y99999YYn99999HY77777%2722{f2{22{{2T{",
"{{{7{7HH{7H{7HH777HH77H7HHHHH9YHYYHY9HH7HHXH9YH9H979HH77HHH7777HHHHHYYH999Y9Y7H99H7277HHYH%99HHHHY92HHHHH77H%77H77779YnnY9Y99YH9H9nYn97n9n7277%72{f{{z*$>izf2f22",
"HH{7{H{HHH{77H77777HX7777777HHYH9YHH97HH979H99H9HH777H77HHHH7X79HH77HY99H7YnnnY99n977797YH9H977H77977HHH97777H77H7777H999nnY9nYnYH9YYn%n95n%%9772{fiDa8+=k#>2f{{",
"77H{77H{H{7H77H{777H777777777H7HHY9HHHH9H7H7HHHHHHHH9Y77HHH777HH77%%HYHH9YHYY999%nHHH799HHH7H99H7HHH9HHHHH77%7%H72HH99H%9HH99999%%%nn99%n979H%7{2c#k88=---+@*2f2",
"{H{H{{H77{H{H{H7{X2HH77X777H7H9Y9HHH77HHH99HHHY99HHH9HH77HH7HHH9H7Y9HYHH9HHHH99H99HHH799H797H9HH7H7H99%HH%772H77H77HH%HHH77%Y9HH999H%nY%7nn9H22c#B===+Nj]--]@T{z",
"H{7777{7{7HHX7{777H7HH{7{77HHHHHHYYHHH79H77HH9HHHYHY97HH7H7HHH9HH77%7HY9Y9HY99HHHH9999777H799H97HHHYY7H%nHH7777HH727%H%H%H%HH9H7HH%%H9%Hn%92fcdB===++NjNN+j-8${2",
"77{H{7X77{{777{HH7H7HHHH777HY99Y99HHH77HHHHYYYYY7H7HHH7H9HH772ceyEEscH97HH9H77YH9HHH7997H77997H9n99nn7H79%7777277277H%%7HH%%H7%H77%%HHn%%%7cdB==++NN+NjNN++]NdT2",
"H{H7H77H{HH7HH77HHHHHHHH7HHH7H79YHYYYYHYYHHHYY9HHHHH7HHHHH77{GesceDE}/7999YYHHYHHHH99%77HHHH997779n99n%9777%777f2772n9%7%7HH%%7%77HH77H77gA8==+NNjNNjjNNNNN+8a2z",
"H77{7777HH7H7{7HHHHHH777X7YHHY9HYYH9YYYYHYYH9HYYYYYHH7HYHHH2nr2{cscsV}iHHHHYY99HYY%7H7777999YYYY9HH79Y99H77%7777{272HH%7H7777%H%H7%%%%f*@8=+NjjjjjN++NNNNN++=az2",
"7H7H{7H7H{77HH7HHHH77X77HHHH99H9H9YY9YHHYYKn9YHH999YHH7HYHHHn57n2$sD^qcHHYHHHHH9YY977777777%99H9HYH7Hnn979H77H77H22HHHH2777H%7%H%%27zV@==+NNNNjjj+++NNNNjN++=azz",
"7{X7HH7{H7HX7{7HHHHHHHH7H9YHHHHHY9YYY9YYYYHKYYHHYHH9HY9HH7H79r2%TsgDQ}THH9Y99HHHHY%H997HH9H%%9H9H9n%9H99H797%H7H777H7HH77%%7%HH7H%fVa=N++NNNNNNNN+NN+NNNjj++=az2",
"7H77X7HH{H{77H77HHHH77777H9Y9HYYYHHYnYY9nnYYYnKYYYYYYHHHHHH79n2T*g*sQZTH9YYYHHH9%9n%77977799H%%H9%9H9999%HH%HHHf72f7H7HH%997HH%7zDk=+NNNNNjNjjjNN+++NNNNNN++=azz",
"{777HH7H777{77779YYH7HHHH7HHH99YY9YYYHHY%nY9YYYYK9YY9H9H7H7772T2zc*g^qz9YHYY7HHH9997HH%9H9H9HH%7H7n7%99H7%H%%H2HH7%7%7%HHH%H%2i^SNNjjjjjjjjjjjjNN+N+NjNNNjN+=@T2",
"H7777HHHHH7H777HHYHHHHHHHH9H9HY9Y9HH9nY9Y99YYKnY9Y9nY9HY7HHH%nr2Tgcs^qT999999HH79n99HHY9Y9n999999999H7777HH77H7777H777H%%777*A8j+NjjjjjNjjjNj]+++N+NjNjNjjNN=af{",
"77HH7777777777HHH9HHHHHHHHYHYYY9H9n9YnY9999YYYnKn979YHYH999Hz2{n%gDgQu{9997Y9H9%9H9Y9HH999nn9n9999999%77%H777%7%H7%77%HH%%*Z0-jj]jjjjjjjNjjjjj+++N+NNNNNjjjN=a22",
"H7HHHHHH{7HHH7777HYHH99999HYY9Yn9nYnnYX99nYYYYK99n99YY9YYHn97%%2csc^lu2Yn9999nHH99nn9YY99nnYnYnnn9n977%%7%%%%727H%7%7H%7*@0-]NNjNjN]jjjjjjjjNjN+++N++NNNjjjN=af{",
"HH7H9YY9777XH7YYYHYYHY9YXnYnK9nY9nKY5Knnnnnnn9Yn9nY99YYYn9H9%ci2T*D^Qu{9HH9999999999nY{ee6e66///gHnn%7772H7H7%H27%7%%H$_vojNN+NNjjNjjjjjNjjjNN++++NN+NNNjjjN=@f2",
"HHH799n9HH777HH7H9YHHYYHnY9TE!yGe6!}333sTT2nKY9KnnYKYn9nY99%T$5Ww*gz^q%9%%979799%9Y9ce!m3eJTe!3')}7{ic{29%7H7HH%%9%fV_--jNj+++NjjjjjjjjjjNNNNNj+N+++NNNNNNNj+@22",
"HH9H99nHHHHHH7Y99999H9YYK9nG3}WWW!3G!X)lge'g5nnYYnYnn5nnnnH{D$&WCgDDgZl999n959H99%n{lE}IKWWG'}EXOODD{{{*H%%n%7%HHzDSP-jNjNjNN++NjjjjjjjjjjN++++NNNN+N+NNNNNN+a22",
"Y97HH99n%77H799Y9HHYnYcTJc{^Ou{WU')O!'v^YGMs5KnKKK5Ynnnnn952gQu^Q_t|tDDn9%9nnY79T{Hc^^AI}TJ''Hcu^SQ/KYKcn%nn%nHi^t|jjj-j-jjjj]]jjjjNjjjjjN+NNNNNNNNNNNNjjjNN+@2{",
"HY9H997Y9%9n9nnYn9YH99c{{cGZQMl{G'qzevOZAuADnK555K5K{2{2{{22{cDizneDQTTT{cT{s2{l{{HJQ'sMMie)'HTqTM_g,H~eD^tS_aktPoo1.1.1.....1..1jjjjjjjjj+N+NNNNjjjNjjNNNNN+a%z",
"YH{{7T2TT{TG*cz2z2T2TYc77Y^qcMQ$/S}2/)ZtaQZ^n5K5KKK5'))::0||:)t'^/uvPvvPvovPoP')H%Yi0|iZOhstM2cqYq0VKYrsv01P=k8]1...11111P-=-.1.1j-jjjjjjjjNNNNNjjNNjjjjjjN++@22",
"nc{{T{{{{ccccsz5%f%fg%z5~CqOgZA#lMqz#t'v:|v}nYX2Kn5CvvPoPPPvPPPPQ}_'oo1ov1ovo1MOKr52vvsqZ$$t'TGQ2gvT,YncPv0tojM_:P..11..-@_uqN1.1NjjjjjjjjjNNNNNjjjNNjjjjjN++@f2",
"{gKYTKT*TggGcs}Vggggls%2nKT|ZqdzQ)ufEtlO)MulE6EEeyenvPPPPoPoPPPP^/uO|P1o)1o'voQs&nCrZ'#qAhhSMcs#cXM&~YKc)tM_qul!uM]...11a}_o)Z-.1NjjjjNjjjNjNNNNNjNNjjjjNjjN+@2f",
"cT2~ccHgcsggg^QsD^/sg{r%%7,)ZZd>D)Z%^'sGlcJ2cURYX{{pPoPPvPPPoooo/gqE'1ooOoo'Po!Y~CKKeEZd@h*a'gEqsJ6r&K~T}Dg*{{22l}B....-@e2v0OB..jjjjjjNjjjNNjNjjjjjNjjjjjN+N@22",
"eJ&J{{G%gggcYEXK2{%rC&n2nge)ad^9D)u2^_!^ecTcgJ44pWbCPPoooPPovPov/gO3L1.1)1P)ov'Zrnn9Za_AA**_M*E@QQesrY7cl^sc22X{Euk....1u/2||B+..jjjjjjjjNjNNjNjNjjNNNjjjNjjN@z2",
"Vc{2{G2cgG/c{QE/QQ^DVsiT2s_0Z^hfD'Z%^S}qqlQlZ/sec~,KvPPPoPPPPvoP/gq_v..ovo)PP:t'72nTlM_AA>$_MzGAAq_DrKKcAQQ^$g$V}u:....1kuu)tu]..jjjjjjjjNjjNNjNjjjjjjNjjjjjN@22",
"sDcTgTgsc^$eg^lu___O_ZcTi$qod#^$^)q2DMqt:ttS_O33644KPPPPooPoPoovssqOP..1P.vPovv'2zT*)PBdd$*a_zcqd30^,HKc'MMB__u@uB......-BBt_]..1jjjjjjNjjNNNjjNjjjjjjjjjjjj+@2{",
"T^*D$s^sD/QQsQ_q}qAA^**GcVtPQ^hhh_q2DZuv0vvZn%T{G_39vPPPPPPooPPPes})o...o11ooP1)c{isPPMAd>>Z_zcqQuo}nr7goo1:o]Bu8o........-]P....jjjjjjjjNjNNNjjjjjjjjjjjjjjN@f2",
"n/lQlQQlQqAAAq*ziT{29HDgsD0v^Ah$DtZ%DqMP|:vunr~r~r~&:vPPPPoPvPovs}qo...11.11ov1:Vgg^oP_Ad>>@_zcZ#_PZHYH^PP.]-Po0-...............1-jjjjjjjNNN+NjjjjjjjjjjjjjjN@22",
"97sssssss/ssgG%K55nKK9^sD^AtqAhhhtqHDAS1)aMd9KrrrKK~|0vvvvvvvvvvsM_PooPv)v)tt''_Q^^dt0Mahff@_i*_#_|q7ccg^DE/gg^u]]------------jjjjjjjjjjjN+NNNjjjjjjjjjjjjNjN@22",
"n999799nn9Y9Knn5nKKn5KQ^^lDSaqh$hMq9sl@SBZaQKrrrrr~T3qqAAAAlqv|vMAZ!'EKKKKKK55rH/DDDd__@hff@uTgasatdgGecH7%%%7%H*A+-jjjjjNN++NNjjjjjjjjjjj++++jjNNNjjNjjjNjj+a{2",
"nYHn9YYY99nYnnYKYYKKnKs/D/{ZZ@hhh_a2slQZSAaQnKrK~KK~r~KrKK97c|vPovvM:^KKK~KrKK55rKrTdZ_@hf~#Ac*qc_l^ssE*Y%9Y9X29%2idN-jjNNNN+N+jjjjjjjjjNNNN++Nj++NNNNNjjjj]+@z2",
"YYn9H999%nnnYYKnYKYYKKKrrnndaq#$^MuHD^Q@M^Z^K,KrKr~KrHD}ZOqZqZM)||)MtMl/Q^Qq*KrrKYKTA__ahf~dZTc@caDc/Ds{nHHHH999H%%9T^8--NNN+NNNNjjjjjNjNjNNNN+j+NN+NNNNjjNN]a2{",
"YH99HHHHHY9nYYYn9Y9YKYYYYYnQaZhh^Sq7DsQAMsqQYKKrKr~rKKsq_MqD^,CcQqq^^A%,*ldAcKrnKrKiAAaah>>@_2cAcag9YKHH9H7YHH%9HH%%7H{DB--NNNNNjjjjjjjjjjjjjN+N+NN++N+NjNNN-az{",
"Y9HYHYnYHY9YnHHHH9nn9YKKYnK^aqh>^Mq%/D^AMgA^Y~KKrr~Kr5rgqt)Mgq&Gu:'A)V&QM_QKrrrr5KniAA_dh5z@_2cdzZgnYYKHY99H9YH7H999%%2%zVB--NjjjjjjjjjNjjjjjNN++NNNNNNNNN++]_22",
"YY99YHY9YYHH9HYYYHYn5YnnKYn^Z@hhhqq2Ds^@_il^7rKrKKrKKK{DOt:tA_r6M))S:Zc_t|_cn5KrKKrTAZ_Ah>$aM2cAi@gnY9YHHHH2HHHHHH79997%2%2$kNNNNjjjjjjNNjjjNNN+++jNNjNjjN+N-a{{",
"HHHH9YHH9HHYH9HHHY99nYHHYn9^_Ah$h_A7sg^Aq2A^YKKKKrKKK9slO'3HQ2iAS_ZgA_g,*@_Acr~rnKKiAd_ad>*__cgAiQgKKKnYHH9XH9H7H99HH%%7777H7*@=NNjjjjjjjjjjjjNN++++NNNNNNNNjZ22",
"HH77H9HH7H7H79999YYH%YY9KY9^adhhh'q{Dc^A@zA^HrKrKKK55Y^Z_3^2^wWC$lAs*@,W%#AqTKrKn5riADM@d>*__sg#T^gnKKYYYH99H9H2X2HHH722%777797*d8++NjNNjjNjNNjNNNNNNNNNNNjN]@z{",
"77{799X777H772HHHHH9HHYYH9H^_dhh^SZz^c#q_ilQHKrKKKrKKKcE_')Z^gCcAZuuZZT$_tS^KrrrKKYiAAS@d>*a_sgDfQgKnYYnY7HHHH9HHH97%%777%7%77279i#B++N+NNNNNjjNN+N+NNNjjjNj]@2z",
"HH7HY9HHHH9HHHY7H9H7HHHYYYn^_dhh^MZ{Dc#q@zdQnKKKKKrKKK5cl')OnVWXqt_A_V&qS_DrrrrKKrKTAQSAd>$a_/ssf^gYnnYn9HHH9H9HH2HX79X7277227727%%z#k=++NNjN+jjN+NNNNNNNNNjjq2z",
"YY7YYYnH79H99H77HHHYHYYnYYYdZh#hd)Z{^{^Zu2AQ7~~rrKKKrrTG3'tZ*^,g_SMutlcAtt^srr~rKr5iAqSAh>$_uegDfAgnnKnnY7HHHHH9Y7227277HHH722%22222%fVa=+++jjjjjN+NNNN+NNNNNd{2",
"9HYYYY9HHnKY9YH9Y9999YKYnKKQqhh$^SZTD2#ZA2q^9KKKrrrrrnVA_'}K,&RTqZ3g^aTR$@Zq{r~~KrKTqDSd#%>aaG*sf@G5nKKn999779HHHX22X7H99%X7727222222%ff$@==++j+jjN+j+jNNNN+8Df{",
"HYKnnY9YYYnnnYKnnYnnnYKYKYrdA$$>Dt_TD7#ZuA_QY~~rKrrrK9Q_''}7$WWwsaZQgA&wgd_ZHK~~~K,cZ^S#$5>dagg*z_*KK59nnH979H9H7H7727HH9H77H7H2222222{2%f*A8++NNN+N+jNNNN+N=V{z",
"YYYYKKnKKYKYnYYKKKKn5KKKYKrQd>f>hMacQ9DZOI)'Hrr~K~K~Kr2Q_))_d$,eq___Ma$l::as,~~~~~~TZZMh$>$a_s/iz_*rKKnK5Yn9nHHHHHXHH2HY2H72X77{{2{2{2{{{22f*d8==++N+NjNN+N-Bcz{",
"YYYKYKKKKKnKKnKKK5KKKYKKrYK^#5C~$MZg^2#q!mLLX~rK~KKKrnT/}))MQD,zZtMZBgr_tSAfK,~~Kr,c_lMV$f$aus^TzaerK5K5KKn9Hn9HYH777X7%X2H7H{{XH{2{{{{{{T{{{fcdB=++NNNjj]-|dT{T",
"YKYKYnKKKrKKKKKKrKK5Kn5YHzz^h,WR9^^Ts2qa!mL'G{7{772{2*Q_t'!T*&wKAaqQDd~~hZZq${{2{{z^tQMh>>*a_E#czAszTzTTTTz2nnn9YHH9HHH%H72X27{72X{2{2{{{{{{{zTzc#k8==jP-oN@*2{T",
"Y9YKnKKKrr~KKKKrKrrK~5zziTTGGHwwU{Ge64lImIL)*z{TTT{zTgQ')tQ{*WWRDqq^$dr&*AaZsiTTiiTsMAMlf>*aBEQc*A/iTiiciicTTnnn9n9Y9HH9nH7277722{2X2X22{{z{T{TTTTi#k8N]j=#*2TTT",
"YnYKKKKpKKKKKKKrKKKK{TTiiTT<<;bbU([[44ym3mL)cTfzzz{fTcQMvv_lqK,XZS_qQq25DkSSsTTTTTT$_AS_r%*aMDlGc^sccciccccicc75nYYY999YnYHHH27X7{{2{{{2{{T{{{{TTTTTTgD#V*>iTT{T",
"XYYnnnKKKKKKKKKKK52TzTi{TT{<;Ubbb(<[[yy}Iu'McfTTzzzTzgq'|)q*DWW,QMuADAfrh@__VzzzTTisqqS_iwCQBQQgqBDTTiciiciccicT9nnn999nY9HHHH772H{{{2{{{{{{{TT{TTTTTTTicTTTTTTT",
"KKYKKKKKnKYKKKKKHTiTTTTiiiTx[<FF<<[x4ymmL_Mugiiiiiii*$lS)|O$DCUHqM_ZA@22ASMZD*g**g*D_MtZrWWeM_qrqS^gggggggggggg*c{rn5nK5KYn9H79H79H227X{{{{{{{TT{TTTTTTTiTJJTJTT",
"YnKKnKnKKKKKKKcE}!!!Q!EE^^^}!!ecJ4eyyy}OO!llE!E!!!!ElvvPPPPvP00v)_M3uO!QO}QO3lO/DDDl}ZlDGcJsQ}u3l}gDAA^}lQ!D/^E}3}E95n5Kn5n5n9H%H72X72X2{{{T{{{JTTJTTTTTJTTTcTcJ",
"nnKK9p5nnKKY{/!EE!EyEEyyyEyEy6yy/6eeyyy//y66yyyy66Eyel}}}3}3}O3qlEEEyyEyEEyyEyE/EE/EEyE/seee/EQ!EEssse^E!EEE!!!!!Q!lcr55KKnnnnY%HHH772222{{{{{{{{TTTTTJiTTcTcTTT",
"KKnnnKnKKnKGEEEyy6yy6666666666666666666y666666e66666666666y//66666666666666/666666y6///y666//66/6//6E//yyEyE6////EE!Q/%~55K5n99nn9977222X{{{{{{{{T{TJTTTJTTJTJcc",
"nKKKKKKpKHeE66eeeeeeeeeeGeeeeeeeeeeeeeeeeeeeeeeeeeeeeeeeeeeeeeeeeGegegeeeeeGeeeeegeeeeeeeg6eeeeee6eee6se6s66////66///EE2r5K5nnnnnn%%HX722{{{{{{{T{TTTTJiTTTciTcJ",
"p9nnnKnnYe4JxJXXXXpppXppppppppppppppXXXXXXX{X{XJ{JJJ4GGGGGGGGGeGeeee6eeeee6se6eee66eeee66666/6///6/6/66//////yEy//yy!EEQ955n5nnnn9n9H%%XHX%X{{{{{{T{TzTTTTcTccTi",
"n9Yp5KKKX&UHJJG4J44e6y!}3OOMO''''t)t)000vvvvvvvvvvPPoPPoPooooooPoPoPoooPoPoooooooo1o1oooPPPoooooooooPoPPPPvvvvvvvvvv0v)E2nYYn999n99n97%9%%%%29X2X{{{T{{TTTTTTcJT",
"K9nn9nnKcle}O'I33MII'):t:))tt'M3OII')Lv)vvPvPvvvvvvvvPPvPPvPPvPPooPv0vvovooPooPoPoPPPvPPooPPvvv0:00vvvvv0)0)))))v))vvooEf%9%%7%77%9%999nn999n9%77%777772{{{T{TTT",
"HH9n9nnKcq!3I'_}q}AQl}lQ^^^d^QQQEEEEE!!!}}uMM''t)t)):t:0:00:000|||000|0v0v0v00vv0vvvvvv00vvPv0v0|v0)|0))))):0)00))v)v)v}H%n99Hn%H%97%%H9H777nnnn%%7%%%97222{2{z{",
"99HX9YKY{^/EGHrr~r~~~,,~rH{H595r5KKKrYKKK~rK5n7f7zTzzczT*$*$shQ^^^hDd^^^d^^#ldddqdAAddAZa@q@ZZqZZdQllQllAl}Qlll}}}}!}I'lfn99%%7nn7%%7H%9%%%n9n%%97%7HH9%H77%2%72",
"H779YYYHH&&&,&,C&,C&CCKC,C,,C,C,,C,,,,r,~KKYn5nrn%z9nnrr~rr~5,r5rn555r%55n2frr75n75nn7%n727n%%2f{7T2z{zziizTTiTiiccT2zic2n%n9n99nYn5%Ynnnn9n9nnnnn9%999%777%22%2",
"299HH7HHHww&&UCCU&CCCC&&C,C,,&,,,,,C,,,~,,,~r~~~~~rr~rrr~~,~,~~rrr5r~r~~~~rrrrr~rr555r5n55n55nnnn55nn%9H7727f2z7{ff7H77%{7%%n99%Y%nnnn9nn5nnn5n5555K5%n9%nn9%%%n",
"{2X277H7{w&&CCCC,CU&CCCCCCCCC,CC,,CC,,,CCCC,,~,,~~,,,,,~~r~~r~rrrr~r~rrrrrr5rrrrrr~r55555r5%n5nn555%n%f%%f7222f2HHf%f%7%f7222272%%%%%%nn%%nn9%nn%nn%9%nn%nn95555",
"H27HHHHY{WU&U,UC,,CCCC,,C,,CCCCCCCCC,,,,,CC,~,,~,,,~,,~~~~~,,,~r~~~,~~,,~~r5r5rrrr5~5~rr~r5r555nnn5n%%%%%%HH99HH72%%n2%52z{{227277277%2%9%%%%%%%H%%%9n%%%%n5n555",
"HH9HHHHn{wRC,,~,,~,,C,U,CC,CC,,CC,,,,,,,,,,,,,,,C,C~~,,~~~~,~rrrrCrr~rrrr~~~~r~r5~5~555r5rr55r555Hnnnn%%%%777%ff%7f%%%%5fz222%97%%%%7%9%79nnn%9%7%9%%n99%%%%%%n%",
"HH79H97Y{w&U,,,C,,F,,,~,,,~,,,C,C,,C,C,,,,C,,,C,,,,CCC~~~,,~~~~r~~~,~~~~~~~~~~~5~5~~~~55r5rrrrrrrr55n5nnn555n%55nn555%%r%{f222%2%777%9%7%9%9%nn99%%9%%7%99%%%7%9",
"7HH%79H9{w&&CU,C,,,,,,,,,C,CC,C,C&,&,CCCCC,CC,C&&CC,,C,CC,C,,,,,C,,,C,,C,,,~~,~,,~~C~C~,~~,,~~~~~C,,r~r~r~~~r~rrr~~,~~~~fTiT2{22%n%%7%n%79%9%%9nn55nn59n5nn9nn55",
"727{7777TC~rYYHYHHHYHHHYHHH7H77799nnnKnn99nnnn9%nnnn%%n%%%%5n%%n%%%%%%5%555555555555555555%%55%%%%%%nn%%22ff2ffffffzf5%fccTiTzz{{2272%%n%9nn555r5555r5r~r~r~~rrr",
"TT{TTTTTTcJsvoPPPooo1oo11)tt):|||||0v0vvvvvPvvvPvvPPvPPPPPPvvvvvvvvvvvvvPvPvvPPvPvvvvvvvvv0vv||::::::tt)ooovPPPPooPvt$gg**cciiTzz2f22%%555rr~5r~rrrr~~~~~~r~~~~,",
"TJTTTTTTiTcT'PPPPPPooo11.'S)):0vvvvvvPPoooooooooooooooPooPPPPPPPoooPPoPoPooooPPPPoPPPPooPPPPvvv00||||:tt11ovvvPoPoooas$ggggccTzT2z2%%n%55555555rr~~5~r~r~~~~~~~~",
"%%7779H7{{7T^PvvvPPPo11.PStt:|0vvPPoooooooooooooooooooPooooooooooPooPoPoooooooooPoooooooPoPoP-PPPvv]00|:PoovvvvoPoPvQsVs$gg**ciiTz27%%%%%5r5r~5~~~~~~r,,,,C~C,CC",
"n%99%%27zTicg|v0vvPoPo1.:t:||vvvPPoPPoPPoooooooooooooo1PoooooooPPoooo11oooooPoPooooooooooooPooPP-Pvv0||:0oPv0vPPoPP:DVsDsVggg*cciTz2%%%5555~~~~~~~C,,CC,C&CCC,&C",
"7%7772z{{TiTc'0::0PoP11.)t00vPPooPooPooPooPPvPPvvPPvPvvvPv-vPvPP-PvPvvvvPPP-PP-P-PPPPPPoPPPPvPvPvvv0]:|t:Pv0::vPvvPS^DDDDDVsegg*ciTz22%555~~~~~~~~,,~C~,C,CCC&CC",
"77ff2f{zTcicia0|t:vPPo1.vvvPvvvvvv||:|::t):t))8:t)t)t8t)tt):8::))tttttttSSttSSSStttttttttt)t):))t::):8ttt-0:::vPPvPMAQ^#/sssggcccTz2%%555rrr~,~,C~~,,,C,,,CCCCCC",
"{{{TT{Ticic**^Sttt|vPPP0SMaa@qAAAAlAQdd^^#^##d^d^^d^^^^d^d#^^dd####hDhVDhVVVVVVVVhDDh##^#####^#ddd^ddAddAaSSSt|0|:tdDs*cciizz22nn5n5rrr5~~~~~,~,,,~~,,,,,~,C,,,~",
"{{{{{{{{{{{ziz*>******c>i>iiiiiiiifff%fff%ff%%f%%f%%f%f5%%%%%5%5%5555n%%%n%nnn5n%%%%%%n%%%2%%%%fffffff>fff>f>f>zfff%555555555rrr55r5rrrr~5~~5~r~5~~~~~~~~~,5,~,~",
"7777{{{H77HY9HHYnn55r~~~,CCCCC&&&C&C&&RR&RRRRRRRRRRRRRRRRRRRRRRRRRR&RRRRRRRRRRRRRRRRRRRRRRRRR&RRRRR&&&&&C&&&&&&C&C&&&RRRRRRRRR&&CCCC,C~~~~r~~5~5~5~~5~~5~5~5~r~r",
"{{{{7772{7{72{7z{f777%%7nnn55%55rrrr~,,,,~~~,C,~~,,,C,C,C,CC,,CCCCCCCCCCCC&&CC&CC&C&&CCCC&&&&&CCC&C&R&&&&&C&&C&&C&&&&CCC&&&&&&&R&RR&&&&CC,,,,~,~~~~555555555rrrr"};
