/* XPM */
static char * sidetone_xpm[] = {
"160 80 33 1",
" 	c None",
".	c #2A1F0C",
"+	c #3A301C",
"@	c #585140",
"#	c #4E714A",
"$	c #7D8777",
"%	c #A1A29B",
"&	c #32220D",
"*	c #F2F2EE",
"=	c #E2524E",
"-	c #8E4243",
";	c #86191C",
">	c #DF6B6A",
",	c #873532",
"'	c #EBA7A3",
")	c #E68682",
"!	c #757565",
"~	c #935C5B",
"{	c #822B2A",
"]	c #8E5350",
"^	c #93877E",
"/	c #D60303",
"(	c #9C7875",
"_	c #EED6D2",
":	c #82544A",
"<	c #9A978F",
"[	c #49402E",
"}	c #676452",
"|	c #B2B2AE",
"1	c #7E1B18",
"2	c #93716A",
"3	c #722F1D",
"4	c #DE3636",
"||||||||||||||||||||||||||||||||||||||||||||||||||||||||||||||||||||||||||||||||||||||||||||||||||||||||||||<<||||||||||||||||||||||||||||||||||||||||||||||||||",
"||||||||||||||||||||||||||||||||||||||||||||||||||||||||||||||||||||||||^<^<|||||||||||||||||||||||||||||||~;;2|||||||||||||||||||||||||||||||||||||||||||||||||",
"|||||||||||||||||||||||||||||||||||||||||||||||||||||||||||||||||||||||^;;;-||||||||||||||||||||||||||||||<1(~-|||||||||||||||||||||||||||||||||||||||||||||||||",
"||||||||||||||||||||||||||||||||||||||||||||||||||||||||||||||||||||||||<<{(|||||||||||||||||||||||||||||||{-,]%||||||||||||||||||||||||||||||||||||||||||||||||",
"|||||||||||||||||||||||||||||||||||||||||||||||||||||||||||||||||||||||||%,%|||||||||||||||||||||||||||||||^-;(|||||||||||||||||||||||||||||||||||||||||||||||||",
"|||||||||||||||||||||||||||||||||||||||||||||||||||||||||||||||||||||||||^-|||||||||||||||||||||||||||||||]^(,%|||||||||||||||||||||||||||||||||||||||||||||||||",
"||||||||||||||||||||||||||||||||||||||||||||%<~:%||||||||||||||||||||||||~]|||||||||||||||||||||||||||||||]{{(||||||||||||||||||||||||||||||||||||||||||||||||||",
"||||||||||||||||||||||||||||||||||||||||||||^;{~|||||||||||||||||||||||||~]||||||||||||||||||||||||||||||||<<|||||||||||||||||||||||||||||||||||||||||||||||||||",
"||||||||||||||||||||||||||||||||||||||||||||^;^<|||||||||||||||||||||||||<<|||||||||||||||||||||||||||||||||||||||||||||||||||||||||||||$#%|||||||||||||||||||||",
"|||||||||||||||||||||||||||||||||||||||||||||,;1,%|||||||||||||||||||||||||||||||||||||||||||||||||||||||||||||||||||||||||||||||||||||%###$||||||||||||||||||||",
"|||||||||||||||||||||||||||||||||||||||||||||~-<,~|||||||||||||||||||||||^<|||||||||||||%||||||||||||||||(]||||||||||||||||||||||||||||$#$##||||||||||||||||||||",
"||||||||||||||||||||||||||||||||||||||||||||||||~-||||||||||||(<%||||||||{{|||||||||||||<,<||||||||||||||-2|||||||||||||||||||||||||||<#$|<#<|||||||||||||||||||",
"||||||||||||||||||||||||||||||||||||||||||||||2,12|||||||||||<;~|||||||||((|||||||||||||<{^||||||||||||||{<||||||||||!%||$$|||||||||||##||$#%|||||||||||||||||||",
"||||||||||||||||||||||||||||||||||||||||||||||%(^|||||||||||||(<||||||||||||||||||||||||||||||||||||||||(-|||||||||!##||%#$|%<|||||||<#<||#!||||!$%|||||||||||||",
"||||||||||||||||||||||||||||||||||||||||||||||||^^||||||||||||||||||%%<<^^$!!!!!^^^<<%||||||||||||||||||,2|||||||||%##!|<#%$!#$||||||#$%|$#<|||$###|||||||||||||",
"||||||||||||||||||||||||(~<|||||||||||||||||||||,{|||||||||||%^^}:@++&..&&&&+&&&++&&&&&+[@}!^<||||||||||-^||||||||||#<%|!$%#$<#<||||%##$##$|||%##$#$||||||||||||",
"|||||||||||||||||||||||^;{{%||||||||||||||||||||^(||||||%^!@+&..+@}2^^^}%||||%[<||||<$@(!:[[.&+[}!<||%||||||||||||||%||%#%$$|<#||||||<###$||||##%%#$||||||||||||",
"|||||||||||||||||||||||(~<{^||||||||||||||||||||||||%^@[&&+@2<<+^||||||!|||||<[%||||||!|||||%+@}@+&+@!<||||||||||||||||!#|#$|$$||||||||||||||<#####<||||||||||||",
"|||||||||||||||||||||||||~;{^||||||||%~%|||||||||<![&+[}@<|||||[!||||||}|||||<+<|||||<$||||||[<|||<2@&&+}^%||||||||||||$%|#$<#<|||||||||||||%##$##$|||||||||||||",
"|||||||||||||||||||||||||||~-||||||||2;^||||||<}[++:<|%|}||||||}}||||||}|||||%[<|||||<^%||||<[<|||||^$%![&+@$%||||||||||||###$||||||||||||||$#%|$#||||||||||||||",
"|||||||||||||||||||||||||^(-]||||||||%^||||<2[&[+}||||||!<|||||!@||||||!%||||<+<|||||$<|||||^@||||||!%||||^[.&@^|%||||||$%|<%%||||||||||||||###$##||||||||||||||",
"|||||||||||||||||||||||||({-<||||||||||||^@++}<|!+||||||^^|||||$[%<^$2}[@@[[[+.+[@@@}@!^<%||!@||||||!||||||![$@++!<||||%#$|||||||||||||||||||$##$%||||||||||||||",
"||||||||||||||||||||||||||||||||||||||<2+.[^||||<+^|||||%!||<^![.+&&++[@@@}}}}!}}}@@+++.+++@+@<||||%!||||||@!||%!++@$||%<%||||||||||||||||||||||||||||||||||||||",
"||||||||||||||||||||||||||||-,||||||<}++!!!||||||@}||||<$[[+&+[@!^<%%||||||||||||||||||%<^!@[+&+[}^!<|||||%[<|||||$+.[!|||||||||||||||||||||||||||||||||||||||||",
"||||||||||||||||||||||||||||~-||||^:&[$|||}||||||![<<}[++@2<|||||%$|||||||||||||||||||||||||||<^}[+.[}^%||!@|||||%$$%}[+!|||||||||||||||||||||||||||||||||||||||",
"||||||||||||||||||||||||||||||%|<@++^|%|||!^|||||$.&&@(<|||||||||}+<|||||||||||||||||||||||<@[^||||<!@&+@^[!||||||}||||!++#|||||||||||||||||||||||||||||||||||||",
"||||||||||||||||||||||||||||||%@.[[[||||||<}|%^}+&@^|%||||||||||%+&<|||||||||||||||||||||||[@@[||||||||^}+.[^%|||<!||||||@.+$|||||||||||||||||||||||||||||||||||",
"||||||||||||||||||||||||||||%}&[^|%+!||||||}@[&[$%||||||||||||||$.+^||||||||||||||||||||||^+$<$%||||||||||<}++@$|!|||||||[!!+[$||||||<<|||||||||||||||||||||||||",
"||||%^-|||||||||||%^~||||||!++^||||}[||||^[&[2%|||||||||||||||||@}[!||||||||||||||||||||||}..+<||||||||||||||^@&+@%|||||![|%|!&[<%|||##|||||||||||||||||||||||||",
"|||||<1-|||||||||||21%|||<[&[%|||||<+!|2[+@<||||||||||||||||||||+[++}|||||||||||||||||||||@@<[!||||||||||||||||%!++}<||%+$||||%@+#|||<$|||||||||||||||||||||||||",
"||||||<,]|||||||||||<|||}&@<}^||||||}&++}%|||||||||||||||||||||<[[[&<|||||||||||||||||||||[!%[!|||||||||||||||||||$[+@<!@|||||||[+[$||||||||||||||||||||||||||||",
"|||||||<{(||||||||||||^[+^||%@|||||!++^%||||||||||||||||||||||||||%!%|||||||||||||||||||||!&[+<|||||||||||||||||||||^[..!||||||!$|}+#%|||||||||||%!$!|||||||||||",
"||||||||({(||||||||||!&@|||||$!||!++!|<[+!|||||||||||||||||||||||||||||||||||||||||||||||||^!<||||||||||||||||||||||||^[+}%|||%!|||$+[<|||||||||||##$||%<|||||||",
"|||||||||((||||||||%[.@|||||||}!@&!|||[[}[%||||||||||||||||||||||^[[^|||||||||||||||||||||<^%|||||||||||||||||||||||||<%$[+!||!%|||||@+!|||||||||%##!||##!||||||",
"|||||||||||<<|||||^&@!&^||||||@.@|||||[$<+<||||||||||||||||||||||+@[[||||||||||||||||||||^.&[<||||||||||||||||||||||<+.@%|!+[}$|||||||[.@|||||||||<|%|||<#%|||||",
"|||||||||||,;||||}&}||}+<|||^+[^||||||||^[|||||||||||||||||||||||}%$[%|||||||||||||||||||^!<[^||||||||||||||||||||||@}<[^||<}+@||||||#+$@+<|||||||||||%$##%|||||",
"|||||||||||((||%@&^|||%[}|%}&!%|||||||||@@|||||||||||||||||||||||||[!|||||||||||||||||||||<[+<|||||||||||||||||||||%@[}+^||||<[[$|||$+$||}&$||||||||#<|#$%<##$||",
"||||||||||||||^+[%|||||<+@+[<|||||||||||[@}[%|||||||||||||||||||||}[||||||||||||||||||||||^+@||||||||||||||||||||||@+.+!|||||||}+}|%[!||||!&#|||||||##<#$<#$$#%|",
"|||||||||||||^++}|||||||[&!|||||||||||||[.[^|||||||||||||||||||||%+!<||||||||||||||||||||%|$+%||||||||||||||||||||$[<![|||||||||^[[[@||||||^+}||||||%##$$#$|<#||",
"||||||^]||||$&}%!!||||<[[^||||||||||||||^!|||||||||||||||||||||||<...}|||||||||||||||||||[!}[|||||||||||||||||||||$+<}@%||||||||||@.!|||||||[+@%||||||%|#$|%#$||",
"||||||~1%||!&!|||}^||$&@||||||||||||||||||^}|||||||||||||||||||||%}2^%|||||||||||||||||||@..!||||||||||||||||||||||@.+<||||||||||||$+}|||||}<%[@||||#$||#<%#$|||",
"|||||||%||}&^|||||}^}&!|||||||||||||||||||!&<|||||||||||||||||||||||||||||||||||||||||||||<%||||||||||||||||||||||||%|||||||||||||||^[@%||}$|||[[%||##||$##$||||",
"|||||||||(+^||||||<+&$|||||||||||||||||||||[}%||||||||||||||||||||||||||||||||||||||||||||||||||||||||||||||||||||!}|||||||||||||||||%@[$$$|||||@[%|||||%%%|||||",
"|||||||||$&!|||||<[[<||||||||||||||||||||||<+%||||||||||||||||||||||||||||||||||||||||||||||||||||||||||||||||||<@.@|||||||||||||||||||}&}|||||||[[|||||||||||||",
"||||||||||!&!|||^+@%||||||||||||||||||||||||[}|||||||||||||||||||||||||||||||||||||||||||||||||||||||||||||||||}&++$||||||||||||||||||||!+!|||||<+}|||||||||||||",
"|||||||||||!+!|<+@||||||||||||||||||||||||||^+<|||||||||||||||||||||||||||||||||||||||||||||||||||||||||||||||@&$@@||||||||||||||||||||||^+!|||<+#||||||||||||||",
"||||||||||||!.}+}||%|||||||||||||||||||||||||}<|||||||||||||||||||||||||||||||||||||||||||||||||||||||||||||||!+++$%||||||||||||||||||||||^+}|<+!|||||||||||||||",
"|||||||||||||}.}%<%||||||||||||||||||||||||||||||||||||||||||||||||||||||||||||||||||||||||||||||||||||||||||||%+.$||||||||||||||||||||||||^+@+!||||||||||||||||",
"||||||||||||||%%@.&!|||||||||||||||||||||||||||||||||||||||||||||||||||||||||||||||||||||||||||||||||||||||||||%@$|||||||||||||||||||||||$!|<[!%||||||||||||||||",
"|||||||||||||||$+<!&}%|||||||||||||||||||||||||||||||||||||||||||||||||||||||||||||||||||||||||||||||||||||||||||%||||||||||||||||||||||<&}|||||||||||||||||||||",
"|||||||||||||||$&<|$+^||||||||||||||||||||||||||||||||||||||||||||||||||||||||||||||||||||||||||||||||||||||||||||||||||||||||||||||||||[@||<|||||||||||||||||||",
"||||||||||||||||[@%|}@%||||||||||||||||||||||||||||||||||||||||||||||||||||||||||||||||||||||||||||||||||||||||||||||||||||||||||||||||@@%!+&}||||||||||||||||||",
"||||||||||||||||<+[<![|||||||||||||||||||||||||||||||||||||||||||||||||||||||||||||||||||||||||||||||||||||||||||||||||||||||||||||||%@[%}+!$+<|||||||||||||||||",
"|||||||||||||||||<+.+!||%||||||||||||||||||||||||||||||||||||||||||||||||||||||||||||||||||||||||||||||||||||||||||||||||||||||||||||$[<!+^%<+<|||||||||||||||||",
"|||||||||||||||||||^<|}&[^||||||||||||||||||||||||||||||||||||||||||||||||||||||||||||||||||||||||||||||||||||||||||||||||||||||||||||<%[$%%[}||||||||||||||||||",
"|||||||||||||||||||||<+!}.!|||||||||||||||||||||||||||||||%%|||||||||||||||||||||||||||||||||||||||||||||||||||||||||||||||||||||||||||<+<<[@%||||||||||||||||||",
"|||||||||||||||||||||^+%%!.!||||||||||||||||||||||||||||-;{(||||||||<,^|<-<|(2||^~||<2||2--]-2||%(2^||||||||||||||||||||||||||||||||!@%%[.&@||||||||||||||||||||",
"||||||||||||||||||||||+@%|![%||||||||||||||||||||||||||2;,-;||||||||(;(|(;(|-;^|(;<|~;<|-;;;{~||~;;{(||||||||||||||||||||||||||||||!++[%|$$|||||||||||||||||||||",
"||||||||||||||||||||||^+[%%[<||||||||||||||||||||||||||];2%2||||||||(;^|(;<|,;,|2{%|2;%||^;-<||%;-({-|||||||||||||||||||||||||||||$.[%@$||||||||||||||||||||||||",
"|||||||||||||||||||||||<+.+[|||||||||||||||||||||||||||^;;2|||||||||(;^|~;<|-;;(~{%|2{||||{]|||%{,<<^||||||||||||||||||||||||||||^<}+!||||||||||||||||||||||||||",
"||||||||||||||||||||||||%(}%||||||||||||||||||||||||||||({;-||||||||(;^|2;<|-;;{-{||2{||||,]||||];{2|||||||||||||||||||||||||||||[<|[!||||||||||||||||||||||||||",
"|||||||||||||||||||||||||||||||||||||||||||||||||||||||%%%~;^|||||||(;^|~;<|-;-;;{||~{||||,]|||||({;~||||||||||||||||||||||||||||+@}+^||||||||||||||||||||||||||",
"|||||||||||||||||||||||||||||||||||||||||||||||||||||||-{<(;<|||||||^;~|-,||-,|-;{||~{||||{~|||%-<%;-||||||||||||||||||||||||||||$[[$|||||||||||||||||||||||||||",
"|||||||||||||||||||||||||||||||||||||||||||||||||||||||2;;;-%||||||||,{;;~||-{|<;;||]{||||{]|||%;{~;]|||||||||||||||||||||||||||||||||||||||||||||||||||||||||||",
"||||||||||||||||||||||||||||||||||||||||||||||||||||||||(]~%|||||||||%~-(|||2~||(~||(~||||-2|||%(;;,<|||||||||||||||||||||||||||||||||||||||||||||||||||||||||||",
"|||||||||||||||||||||||||||||||||||||||||||||||||||||||||||||||||||||||||||||||||||||||||||%|||||<<|%|||||||||||||||||||||||||||||||||||||||||||||||||||||||||||",
"||||||||||||||||||||||||||||||||||||||||||||||||||||||||||||||||||||||||||||||||||||||||||||||||||||||||||||||||||||||||||||||||||||||||||||||||||||||||||||||||",
"||||||||||||||||||||||||||||||||||||||||||||||||||||||||||||||||||||||||||||||||||||||||||||||||||||||//////////////////////////////////////////////////////////",
"||||||||||||||||||||||||||||||||||||||||||||||||||||||||||||||||||||||||||||||||||||||||||||||||||||||//////////////////////////////////////////////////////////",
"||||||||||||||||||||||||||||||||||||||||||||||||||||||||||||||||||||||||||||||||||||||||||||||||||||||///)**)//*'/'***'>//=****''****=//)**_>///**4//=*=/*****//",
"||||||||||||||||||||||||||||||||||||||||||||||||||||||||||||||||||||||||||||||||||||||||||||||||||||||//>*')*)/*'/'*=)**'/=*)==44=*'=4/__>=)*'//**_//=*=/*'===//",
"||||||||||||||||||||||||||||||||||||||||||||||||||||||||||||||||||||||||||||||||||||||||||||||||||||||//'*//=4/*'/'*///_*4=*=/////*'//__4///=*>/***>/=*=/*'/////",
"||||||||||||||||||||||||||||||||||||||||||||||||||||||||||||||||||||||||||||||||||||||||||||||||||||||//>*_>///*'/'*///4*)=*=/////*'/4*)/////__/*''_/=*=/*'/////",
"||||||||||||||||||||||||||||||||||||||||||||||||||||||||||||||||||||||||||||||||||||||||||||||||||||||///>_*_=/*'/'*////*'=****=//*'/=*=/////'*/*'4*)=*=/****'//",
"||||||||||||||||||||||||||||||||||||||||||||||||||||||||||||||||||||||||||||||||||||||||||||||||||||||/////>*_/*'/'*////*'=*)==///*'/4*>/////'_/*'/)*>*=/*'==4//",
"||||||||||||||||||||||||||||||||||||||||||||||||||||||||||||||||||||||||||||||||||||||||||||||||||||||//>>//'*/*'/'*///'*4=*=/////*'//__////=*)/*'//__*=/*'/////",
"||||||||||||||||||||||||||||||||||||||||||||||||||||||||||||||||||||||||||||||||||||||||||||||||||||||//)*>>*'/*'/'*=>_*'/=*)==4//*'//4*_>=)*_//*'//>**=/*'===//",
"||||||||||||||||||||||||||||||||||||||||||||||||||||||||||||||||||||||||||||||||||||||||||||||||||||||///)**)//*'/'***'>//=****'//*'///4'**_)///*'///'*=/*****//",
"||||||||||||||||||||||||||||||||||||||||||||||||||||||||||||||||||||||||||||||||||||||||||||||||||||||//////////////////////////////////////////////////////////",
"||||||||||||||||||||||||||||||||||||||||||||||||||||||||||||||||||||||||||||||||||||||||||||||||||||||//////////////////////////////////////////////////////////"};
