/* XPM */
static char * smeter_xpm[] = {
"160 80 33 1",
" 	c None",
".	c #3E2D11",
"+	c #655940",
"@	c #67925C",
"#	c #7DA477",
"$	c #9FB69A",
"%	c #B7C5B2",
"&	c #B62025",
"*	c #D5D2C8",
"=	c #DBDAD2",
"-	c #B22A23",
";	c #C46465",
">	c #CE8B89",
",	c #BE5D54",
"'	c #AAA695",
")	c #877A63",
"!	c #BA5D58",
"~	c #DEDED4",
"{	c #AE2F1F",
"]	c #C2B8AA",
"^	c #D8A9A6",
"/	c #C67B75",
"(	c #776D59",
"_	c #4E4024",
":	c #E3E4DD",
"<	c #98907B",
"[	c #B65253",
"}	c #B73B39",
"|	c #D1C6BB",
"1	c #DFBCB8",
"2	c #AA2612",
"3	c #D2A299",
"4	c #F2F2EE",
"444444444444444444444444444444444444444444444444444444444444444444444444444444444444444444444444444444444444|*44444444444444444444444444444444444444444444444444",
"4444444444444444444444444444444444444444444444444444444444444444444444441|1*4444444444444444444444444444444/}-34444444444444444444444444444444444444444444444444",
"4444444444444444444444444444444444444444444444444444444444444444444444412-&;444444444444444444444444444444~-3/,4444444444444444444444444444444444444444444444444",
"444444444444444444444444444444444444444444444444444444444444444444444444**}^4444444444444444444444444444444-[[/4444444444444444444444444444444444444444444444444",
"4444444444444444444444444444444444444444444444444444444444444444444444444~[444444444444444444444444444444441,&^4444444444444444444444444444444444444444444444444",
"4444444444444444444444444444444444444444444444444444444444444444444444444^,4444444444444444444444444444444/1^}44444444444444444444444444444444444444444444444444",
"444444444444444444444444444444444444444444444=>/4444444444444444444444444>/4444444444444444444444444444444;}}^44444444444444444444444444444444444444444444444444",
"444444444444444444444444444444444444444444441-}>4444444444444444444444444//444444444444444444444444444444441*444444444444444444444444444444444444444444444444444",
"444444444444444444444444444444444444444444441&^=4444444444444444444444444=*4444444444444444444444444444444444444444444444444444444444444%$~444444444444444444444",
"444444444444444444444444444444444444444444444}{{,:44444444444444444444444444444444444444444444444444444444444444444444444444444444444444@@#=44444444444444444444",
"4444444444444444444444444444444444444444444443[1[>44444444444444444444444*14444444444444444444444444444441/4444444444444444444444444444$@%##:4444444444444444444",
"444444444444444444444444444444444444444444444444/;4444444444441:444444444},4444444444444~,=44444444444444;^444444444444444444444444444~@$4*@~4444444444444444444",
"4444444444444444444444444444444444444444444444^[-344444444444:&/4444444443^4444444444444*}144444444444444}*4444444444$444%*44444444444##44%@:4444444444444444444",
"4444444444444444444444444444444444444444444444:314444444444444^:44444444444444444444444444444444444444441,444444444$##44:@%4::4444444%#%4:#$4444$%44444444444444",
"444444444444444444444444444444444444444444444444114444444444444444444:**||]''']'||**~:444444444444444444[>444444444=@@$4*#:%##$444444$#44$@=444*@@#4444444444444",
"4444444444444444444444441>*444444444444444444444[[44444444444:|]')(__.....____..__...___+)<'|~4444444444;~4444444444#=:4#$~#%*#44444:@@$$@$444~@#$#%444444444444",
"444444444444444444444441-}[:44444444444444444444^14444444|'(_..._(<3]||):4444*+*4444*](]<)+_.__(<]=44444444444444444~44~#~$#4*#444444:#@#$4444#@::#$444444444444",
"444444444444444444444443/=-1444444444444444444444444:]<+_._)'|*+]444444<44444=+~44444:'44444:_)<(___)'~4444444444444444##4#%4$$44444444444444%#@##@=444444444444",
"4444444444444444444444444>-}144444444:>4444444444~'+_.+)(~44444+'444444'44444=_*44444*]444444+|444*'(._+)|4444444444444%:4@%%#=4444444444444:##$@@%4444444444444",
"444444444444444444444444444>;444444443&1444444~<+__<|444<444444)<444444<44444*+~44444*|44444*+=44444]]*'+__)]4444444444444#@@%44444444444444##:4$#44444444444444",
"444444444444444444444444411;/44444444414444:'+.+_)444444'*44444'(444444'44444*+*44444]%44444](444444':4444%(..)|44444444%~4==444444444444444#@##@$44444444444444",
"44444444444444444444444443},~444444444444|(__<=4'+444444|]44444$+4~*]'<+)(+++_.++())<('*~444')444444<444444'+](_+<:4444~@$4444444444444444444%###:44444444444444",
"44444444444444444444444444444444444444:'+.+|4444=_|44444:'44~]'+....__++()<<<<<)<)((+__.__+(_(*44444'444444(<44='__)%444*444444444444444444444444444444444444444",
"4444444444444444444444444444;,444444=<__<''444444(<4444='++_._+(']*~4444444444444444444:=]<)+___(<|'*44444:+*44444$__+$44444444444444444444444444444444444444444",
"4444444444444444444444444444/;4444=).+]444<444444'+~|<+__)'|44444:]444444444444444444444444444=]<+_.+<|:44$(444444$]=<_+#444444444444444444444444444444444444444",
"44444444444444444444444444444444*(.+]44444<|44444'._.(3*444444444<_=44444444444444444444444*(+|4444|'+__(]+'444444<4444'__$4444444444444444444444444444444444444",
"444444444444444444444444444444:).+++444444=<4:|)+.)]4444444444444_.|44444444444444444444444+((_44444444|)_.(]:444*$444444(.+$44444444444444444444444444444444444",
"4444444444444444444444444444:<.+|4=_'444444))+.+]~44444444444444$._]4444444444444444444444%_]*]44444444444*)+_)%4'4444444+<'_+%444444~=4444444444444444444444444",
"4:444*;444444444444=>444444]__]4444)+4444|+_+'~44444444444444444()('4444444444444444444444<.._*44444444444444](__(~44444'+444'_(%4444@#4444444444444444444444444",
"44444*-/44444444444>{:444*+.+444444~_'4]+.)144444444444444444444_+__'444444444444444444444((*+'4444444444444444*'+_<=444_]4444*)_#444%%4444444444444444444444444",
"444444|[/44444444444=444<.)*<]444444<___<~444444444444444444444~+++.|444444444444444444444(<4+'4444444444444444444]+_)*<(4444444+_+%4444444444444444444444444444",
"4444444*}^444444444444|+_]44:(44444'__'444444444444444444444444444~'4444444444444444444444<___*444444444444444444444|+..$444444$$4<_@444444444444=$%$44444444444",
"444444441}14444444444'.)44444]'44]__'4|+_'4444444444444444444444444444444444444444444444444%'*444444444444444444444444%+_<~444~'444%_+*44444444444@@%444~4444444",
"4444444443^44444444:+.)4444444<'(_<444++<+:4444444444444444444444%++|444444444444444444444*]:4444444444444444444444444*:]+_'44'*44444(_$444444444~##$44##$444444",
"44444444444~144444]_(#_]444444).(=4444(]*_~4444444444444444444444+((+44444444444444444444|..+~4444444444444444444444|_.(:4'_+<]4444444+.)444444444%4~444%#:44444",
"44444444444,}4444<.<44)_:444%_+]44444444]+44444444444444444444444):'(44444444444444444444|<=+]4444444444444444444444))|+|44~<.<444444#_$++=444444444444$##444444",
"4444444444413444(_]4444+)4:)_<4444444444()4444444444444444444444444+<444444444444444444444*(_*4444444444444444444444(+<_%4444|++%444|_%44@_]44444444#%4@$:=##%44",
"44444444444444|_+=44444*_)_+|44444444444+)<(4444444444444444444444<(4444444444444444444444%_(4444444444444444444444+__.'4444444<_<4:+<4444'_'4444444#$*#%%@%%#44",
"4444444444444|__)4444444(.'4444444444444+._]4444444444444444444444_'~4444444444444444444444]+:44444444444444444444%(*'+444444444|+++(444444%_<444444=@@#%#%4%#44",
"4444441>4444].<4''4444=+_|44444444444444$]44444444444444444444444%...'444444444444444444*_'<+444444444444444444444%_%))44444444444).'4444444(_)444444444#$4~#$44",
"444444>{~44'_'444<]44]_)444444444444444444%<444444444444444444444~)<]:4444444444444444444(..'4444444444444444444444)._*444444444444$_<44444)%~+)4444#$44@%=@$444",
"4444444~44<.]44444<]<.<4444444444444444444<_~444444444444444444444444444444444444444444444|:444444444444444444444444~444444444444444|+(~44<]444+(:44##44$@#$4444",
"444444444]_%444444=__]44444444444444444444~()444444444444444444444444444444444444444444444444444444444444444444444$<44444444444444444:)+%]$44444(+~444444~:44444",
"444444444$.'44444=+_*4444444444444444444444|_:444444444444444444444444444444444444444444444444444444444444444444*(.(4444444444444444444<_<4444444+(4444444444444",
"4444444444'.]444|_(:444444444444444444444444(<44444444444444444444444444444444444444444444444444444444444444444'.__%44444444444444444444'_'44444*_@4444444444444",
"44444444444<.$4*_)44444444444444444444444444%_~444444444444444444444444444444444444444444444444444444444444444).$)(4444444444444444444444]_'444%+<44444444444444",
"444444444444'.)_<4444444444444444444444444444<*444444444444444444444444444444444444444444444444444444444444444'___$44444444444444444444444%_<4*_'444444444444444",
"4444444444444'.<:*:44444444444444444444444444444444444444444444444444444444444444444444444444444444444444444444=_.]444444444444444444444444%_(_'4444444444444444",
"44444444444444~:(..'44444444444444444444444444444444444444444444444444444444444444444444444444444444444444444444)$44444444444444444444444]<4=+<44444444444444444",
"444444444444444$_*'_'4444444444444444444444444444444444444444444444444444444444444444444444444444444444444444444444444444444444444444444*_<444444444444444444444",
"444444444444444]_*4'_]444444444444444444444444444444444444444444444444444444444444444444444444444444444444444444444444444444444444444444()44~4444444444444444444",
"4444444444444444++:4<(44444444444444444444444444444444444444444444444444444444444444444444444444444444444444444444444444444444444444444(+:'__<444444444444444444",
"4444444444444444*_+*$+4444444444444444444444444444444444444444444444444444444444444444444444444444444444444444444444444444444444444444)+~<_'$_*44444444444444444",
"44444444444444444~_._]444444444444444444444444444444444444444444444444444444444444444444444444444444444444444444444444444444444444444$+*'_]4%+~44444444444444444",
"4444444444444444444]*4<_+%444444444444444444444444444444444444444444444444444444444444444444444444444444444444444444444444444444444444==+':~+)444444444444444444",
"444444444444444444444*_').'444444444444444444444444444444*:4444444444444444444444444444444444444444444444444444444444444444444444444444%_**+(4444444444444444444",
"444444444444444444444|_~4'.]4444444444444444444444444444;&}^44444444=,*4~;=41^44~>44~3443;/;/^4441>*44444444444444444444444444444444](~:+..(44444444444444444444",
"4444444444444444444444_(:4'+4444444444444444444444444443&[[}44444444^&143&14,&143-~4>{~4;&&&{>44>&&}1444444444444444444444444444444'__+~4$%444444444444444444444",
"4444444444444444444444|_+==+*44444444444444444444444444/&3~344444444^&14^&14[&[43-~43&:441-[=444-,^{;44444444444444444444444444444].(*(]444444444444444444444444",
"44444444444444444444444*_._+4444444444444444444444444441&&3444444444^&14>&*4;&-^>}:4>}4444}/444:{}=||4444444444444444444444444444%|<_$44444444444444444444444444",
"4444444444444444444444444'<:4444444444444444444444444444^}&/44444444^&14>&*4,&&}[}443}4444}/4444/&}344444444444444444444444444444+*:(<44444444444444444444444444",
"4444444444444444444444444444444444444444444444444444444:~:/&|4444444^&14>&*4,-;&&}44>}4444}/44444^}&>4444444444444444444444444444+))_|44444444444444444444444444",
"4444444444444444444444444444444444444444444444444444444;}11&144444441->4;}44,}4,&}44>}4444}>444:;1:-;4444444444444444444444444444]++%444444444444444444444444444",
"44444444444444444444444444444444444444444444444444444443&-&;444444444[&}&>44,}4*-}44/}4444}/444~-}/&/44444444444444444444444444444444444444444444444444444444444",
"44444444444444444444444444444444444444444444444444444444^;>~444444444:/;34443/44^/44^>4444;344443&&[=44444444444444444444444444444444444444444444444444444444444",
"4444444444444444444444444444444444444444444444444444444444444444444444444444444444444444444444444~14444444444444444444444444444444444444444444444444444444444444",
"4444444444444444444444444444444444444444444444444444444444444444444444444444444444444444444444444444444444444444444444444444444444444444444444444444444444444444",
"4444444444444444444444444444444444444444444444444444444444444444444444444444444444444444444444444444444444444444444444444444444444444444444444444444444444444444",
"4444444444444444444444444444444444444444444444444444444444444444444444444444444444444444444444444444444444444444444444444444444444444444444444444444444444444444",
"4444444444444444444444444444444444444444444444444444444444444444444444444444444444444444444444444444444444444444444444444444444444444444444444444444444444444444",
"4444444444444444444444444444444444444444444444444444444444444444444444444444444444444444444444444444444444444444444444444444444444444444444444444444444444444444",
"4444444444444444444444444444444444444444444444444444444444444444444444444444444444444444444444444444444444444444444444444444444444444444444444444444444444444444",
"4444444444444444444444444444444444444444444444444444444444444444444444444444444444444444444444444444444444444444444444444444444444444444444444444444444444444444",
"4444444444444444444444444444444444444444444444444444444444444444444444444444444444444444444444444444444444444444444444444444444444444444444444444444444444444444",
"4444444444444444444444444444444444444444444444444444444444444444444444444444444444444444444444444444444444444444444444444444444444444444444444444444444444444444",
"4444444444444444444444444444444444444444444444444444444444444444444444444444444444444444444444444444444444444444444444444444444444444444444444444444444444444444",
"4444444444444444444444444444444444444444444444444444444444444444444444444444444444444444444444444444444444444444444444444444444444444444444444444444444444444444",
"4444444444444444444444444444444444444444444444444444444444444444444444444444444444444444444444444444444444444444444444444444444444444444444444444444444444444444",
"4444444444444444444444444444444444444444444444444444444444444444444444444444444444444444444444444444444444444444444444444444444444444444444444444444444444444444",
"4444444444444444444444444444444444444444444444444444444444444444444444444444444444444444444444444444444444444444444444444444444444444444444444444444444444444444"};
