/* XPM */
static char * straightkey_xpm[] = {
"160 80 91 1",
" 	c None",
".	c #241D1B",
"+	c #44423A",
"@	c #788280",
"#	c #B6A88A",
"$	c #CEE2E8",
"%	c #BCCED3",
"&	c #ADBABA",
"*	c #5D5D53",
"=	c #918A71",
"-	c #AF8D58",
";	c #F8F8F5",
">	c #D0C19C",
",	c #987049",
"'	c #B6C6C9",
")	c #DED3B0",
"!	c #838D8B",
"~	c #CBAE71",
"{	c #393730",
"]	c #78776B",
"^	c #F0EEE7",
"/	c #B7AC94",
"(	c #CAC0A9",
"_	c #5C422B",
":	c #856442",
"<	c #C6BEA7",
"[	c #343028",
"}	c #EAE8DE",
"|	c #A1957C",
"1	c #968262",
"2	c #D5D1C2",
"3	c #BEB39B",
"4	c #B79964",
"5	c #B2C2C4",
"6	c #C9DCE1",
"7	c #77705D",
"8	c #E6E4D9",
"9	c #A2A8A4",
"0	c #92948D",
"a	c #C2BCA6",
"b	c #7A5431",
"c	c #302A23",
"d	c #B8B1A0",
"e	c #5A4F3E",
"f	c #7B5E3E",
"g	c #A8B2B1",
"h	c #CAC7B5",
"i	c #B3A285",
"j	c #A49D8C",
"k	c #29241F",
"l	c #8F9DA0",
"m	c #BBBBAB",
"n	c #AEBEBE",
"o	c #E2E3D8",
"p	c #E1DED2",
"q	c #6E6A5A",
"r	c #A7814E",
"s	c #67523A",
"t	c #CDD0C0",
"u	c #AC9676",
"v	c #CFBEA7",
"w	c #AAB6B4",
"x	c #523923",
"y	c #C1D3D9",
"z	c #C5AE82",
"A	c #6C5D46",
"B	c #B8CACE",
"C	c #DAD1C1",
"D	c #4F321F",
"E	c #9C9D94",
"F	c #A38D6B",
"G	c #9B7852",
"H	c #AC906C",
"I	c #886E4E",
"J	c #706652",
"K	c #B09C7D",
"L	c #86785F",
"M	c #92A2A2",
"N	c #DDD8CC",
"O	c #4D4F4A",
"P	c #89826E",
"Q	c #B2BEBF",
"R	c #46392A",
"S	c #79684F",
"T	c #47301F",
"U	c #908C7D",
"V	c #C5B498",
"W	c #2F2620",
"X	c #D1C8B6",
"Y	c #BDC2B9",
"Z	c #A3835F",
"BBBB%BBBBBBBBBBBBBBBBBBBBBBBBBBB'''''''''''''''''''''5''5'''5555555555555555555555555555555555nnnnnnnnnnnnnnnnQnnnnnnn&nnn&&&&&g9l00llEg&&&&&&&&&&&&&&&&&&&&&&&w",
"%%BBBBBBBBBBBBBBBBBBBB''''''''''BBBB'B''''''''5555555'55'555''55'''5555555QQQ5nnnnnnnn5nnnnnnn55Q5QQQQnnQQQnnnnQn&&&&&n&&&nw!qO{[c[[cc[[O@M&&&&&&w&&w&w&wwwwwww&",
"B%BBBBBBBBB'B''B'''''BBBBBB''''''''B'''''''''''55'''5''555555''5555555555555n555555QQn5Q555QQnn5n555nQQnnnQ&QnnnQnnnn&nn&g7{[[{{{[ckcc[[[[[*lwwwwwwwwwwwwwwwwwww",
"BBBBBBBBBBBB'BB'BBBBB''''''BB'''''''''''''''''5''555555''''55555Q5555555n5nn555QQQn555n5QQn5nQQnnnnn5nnnnnnn&Q&&n&&&&n&&!+k[{+{c..k......[ccc]w&&nw&w&&w&w&&ww&&",
"BBBBBBB''BBBBBBBBB''BBBB'''''B''''''''''''55''5'''''5'5555''5555Q5n5Q555555QQQ5555nnQ5nQnQn55nQQnnnnQQQQnnQnnnQ&nnnQ&nw]cc{{{kk.k..k......k[ccOM&wnwwwwnwwwwnwww",
"BBBBB'BBB'BB'BBB''BB'''''B''B''B'''''5'5'5'''5'55555'5''5555'555555Q5n555nn5555nnn555Q5555QQn5nnQQQnnnnnQ&nn&Qnnn&&&&g*kk{{kk.kkkc{[{{kk....kcc+Mnwnwnngnwnww&w&",
"B'B'B'B'B''B'''BB'''B''B'''''''''''''5'5'555'55''''5555''5555555Q5555n555Qn5nnQQQnnn5nnnnn5QnQQnnnQnnnQnQnQnnnn&QQnnw*ck{[...kc*{ln5!q{ck....kkc{M&wwgngngwwwgw&",
"BBBBBB'B'BB'BB'''''B'B'''BB'''''5'5'''''''''55'5555'55'5555555555555555Q555n555555QQn55QQQnnQn55QQnnnnn&n&nQ&&nQn&&n!{c{{[k.kk{O*{@@]+[kk.k.kkkkc*wnnwgngnwwww&w",
"B'BB'B'B''B''B''B''''B'''''''5''5'555555555''5''555'555555Q55QQ55QnQ5n55nQ5nnnnQQQnQQnnnQQQnnnQnnnQQQnQnQ&nnQ&n&n&&gOOO@{kckkk.kkkkkckk........kkklwwngngnwwwwww",
"BBB'B'B''B'''''''''''''B'''''''''5'''5'55''55555'55555555Q555555Q555Q5Qn55Q5QQQnn55nnQ5QnnnQQQ&Q&&n&n&Q&nQ&n&Q&n&nn!+OO*+k.k...k{[{OO{kk......k...qwngwwwwwwww&&",
"B'B'B'BB''''''''''''''''5'5''555'555'5'555'55555'555Q55555555nQ55555Q5QQnnQQ5Q5Qnn5QnnnQQQnnnQnQQnn&Q&Q&&Q&Q&Q&Q&nn@{{{+[kc....{+kk[[ck...........*&wwnwnwwnwwgw",
"'B'B'B''''BB''''B5''5''''5'55'5'55'555555555555555555555555QQ55555nn5n5n5Qn5nnQQQQnnQQQnnnQQQn&nn&nQnn&Qn&Q&&&Q&&&&!{+{k[kkkkk..................kk*nwngwgwwgww&&",
"'B'''''''''''''5'''''555'5''5'55'55555555Q55555Q5555Q55555555n5QQ55nQnQQ5QnQQnnnnQnnnnQQQnn&QQQnQQ&&&n&&&&QQ&&&&&&n9++[ckk...kkkkk............kckclwwwwnwwwwwgww",
"B''B'''''''''''''5''5'''5'5555''55'''55555555555555Q5QQ55Q55Q555QQQ55QQnQQQnnQQQQnQQQnn&&QQQnQ&&n&QQ&&&Q&&&&Q&&&&&&nqO{[k...k.kk[k[[[kkkkk.kckcc[Ogwwnwgwwwwwwww",
"BB'''''''''''5'''5'''55'55'''5555555555555555Q55Q55n55QQ5nnQQQnnQnQnnnQnnnQQnnnnQnn&QnQn&&nQ&QQQ&&&Q&&&&&&&&&&&w&w&&MO+[k..k.kk{{[q**[.kkkkkkc[[{lwwgwwwwwwwwwww",
"'''''''''''''''5''55555555555555'55555555Q5QQ5555QQ5nQ55QQQ5QnQQnQQQQQQ&QQQnQQQQ&QQQ&QnQnnn&QQ&&Q&n&&Q&Q&Q&&&&w&&&&wn!O{kk....kO+{qq*{.kkkkkcc[{@gwwwwwwwwwwwwww",
"'''''B'''''''5'5'''5''5''55555'555555Q555Q5555QQ5555nQnnQQnnQnnQQnnQnnQnn&Q&n&&Q&&nQ&&&QQ&Q&&Q&&Q&&&Q&&&&&&&&&&&&&&&wg]+{k..k..{O{7]+[kkkkcck[{*wwgwwwwwgwwgwwww",
"''B'''''''''5'''555'55'555'5555555Q555Qn5555QQ55QnQQ55Q5n5Q5nQQnnQ&&QQnQ&n&Q&nQ&&n&&QQQ&&Q&n&&Q&&Q&&&&&&&&&&&&&ww&&wnnMO+kk...k[*{J]+kkkkkkc[{OMgwwgwwwwwgwwwwgg",
"''''''''''5'555555555555'5''555555555555QQQ55QQ55QQnnnQ5nnnQQQQQnQQn&Q&QQ&&Q&&Q&Q&&&&&&&&&&Q&&Q&&&&&&&&&&&&&&w&&w&&wwnnl+{k....c_+*7+kkkkkkc[{lwwwwwwgwwgwgwgwww",
"''''''''55'5'''5''55''55555555Q55555555n555QQ55nn55QQ5nnQQQnnnnnQn&&QnQ&&QQ&Q&&Q&&Q&&&&&Q&&&&&&&&&&&&&&&&g&&&&w&&w&wwgww*{[...k.[c{+c.kkkkkc{qgwwgwwwwgwwwwgwggg",
"'''''55'55'555'55''55'555555Q55Q555555555555QnQQnnQnQQQQnnQQQQQ&QQQn&nQQ&&&&&&&&&&Q&&w&&&&&Q&&&&&&&&&&&&&&&g&www&w&wwwnw!+{k...kkkkkk.kkkkk[{M&wwwgwggwgwgggwwww",
"'''5'''5'555555'555'555555Q55'555555555n5QQn5Q5QQQn5nQQnQQnnnnnQnQQ&Q&n&QnQQ&&&&&w9U|h1]9&&&&&&&&&&&g&&&&g&&w&&&wwwwwwgwg+{k...kkkk.....kkk[qwgwgwgwgwgwgggwgggg",
"'''''''5'''5'55'55555''5555'55555Q55555n555n5n55n5QQnQQnnQQnQQQ&nnQ&Q&n&&&&Q&&Q&QwZrrZ,b]&&&&&&&&g&&&&g&&&w&wwww&&&wwwwww*+k...kkk.......kk[!wwgwgwgwgggwggwgggw",
"'''5''''555'5'555'5'555555555gg9g9gQQ555nQQ5Q5nn5nn5Qnn5QnnQnnnQ&&&Q&Q&&&&&&&&&&w&-rr,,f7&&&&&g&&&&&w&&&w&&&&wwwwwwwwwwwn@{...kk.........kc{gwwgwgwgwgwgggggwwwg",
"''''5'5'''''5'''5'5'55'555559uHzuIAgQQ5555QnQQQnQQnnQQQnQQQQQQQQQQ&Q&Q&&Q&&Q&&QQ&wZGr,,bS&&&g&&w&&w&w&g&g&ggw&&www&wwwwgg!+c..kk.........kk*ggwgwgwgwggwgwgggggw",
"''''''''''''''55'5'5'55'55559HHZ-G_g55Q55555555QQQQQQQnQQQnnQnnQ&&Q&Q&QQ&&&&Q&&&&&F:,-bb0&&&&&&w&w&&w&&&&&w&&wwwwwwwwwwwgl+[k.k..........kk]wgwgwgggwggwgggggggg",
"'B'B'''''''''''''''5''5''5559-4rZGbgQ5QQQ55Q5Q555nQnnQQQnQQnQQQQQnQ&Q&&&QQ&&&&&&&Q&Zb,xE&&w&&&&wmwww&g&g&wwwwwww&wwwwwwggl+[k.k............!gwgwgggggwggwggggggg",
"B''''B''''''''B''''''5'5Q'55irrrr,bg55555QQ5Q5QnnQ55QQn5QQnQQQnQQ&&Q&Q&Q&&&&&Q&Q&&&ub:D0&&w&w&&w&&&d&&&&w&wwwwwwgwwwwwwwwl+{k.............klwgwgggwggwggggggwwgw",
"BBBBBBBBBBB'BB'B'''''''''''''g,4Gbg55'5555Q5QQQQ5nQ5QQnQnQQQ&QQQQQ&QQQ&Q&Q&&Q&&&&&&Fb,D|w&&mw&g&wgQ&g&g&gwwwwwwwwwwwwwgwwM+{kk............kMwggwgggwgggggggggggg",
"%%%%BBBBBBBB%BBBBBB''''B'''''YGGbeQ'55'5555Q5555QQQQQQQnQQQnQQnQQQQ&&&Q&Q&Q&Q&&Q&&&Hb,DE&&&&&&&&&&g&&&&w&w&wwwwwwwwwgwwwgg{{kk............[Mgwggwggggwgggggggggg",
"%B%%%%%BBB%B%BBBBBBBB%BBB'B''Y,,:bQ''''''''5555555Qn5QQQQnQQQQnnnnQQQ&Q&Q&Q&&Q&&&&&Ub,D0&&&&w&&&&&&g&g&g&wwwwwwwwwwwwgwwg9{[c[..[k........[gwggwgggwgggggggggggg",
"%y%%%%%%%%%%%%%B%%B%%B%B%B%B%Y,r,e5'''''''''''555555Q5555QQ5QQQQQQQQQQ&Q&Q&QwQQQ&&&Gb,D0&w&&&&d&&&g&&&&&wwwwwwwwwwwgwwwww9{[ck..{k........[Mggwggwggwgwggggggggg",
"%%yyyyyyy%%%%%%%%%%B%%%&i#P=PFH~V,L7L]L]E'BB'B''''''5''5'555555QQQQQQ5Q5QQQQ&9|||jEGG-:UjE0PPE&&g&&g&gwwwwwwwwwwwwgwwgwgwl[[k...{c..k.....cggwgwwwwwgggwgggggggg",
"yyyyyy%yyyyyyyy%y%%%%%%|4iKHHuzVzHZG1::bfBB'B''BB'''B'''wgdhhdgQ55'''55Q5QQQjrFZG,Z4#zuG:bbs__9&&d&w&&wwwwwwwwwwwwwwwwwgw!{+ck..{{OOk.....kMggwgggggwgggggggggwg",
"6yyyyyyyyyyyyyyyyyyyyy%uHzz4H-4HFG1Z1:SbAB%B%B%'BBB'''Yj#t2X))>KE555Y''Y'5'5EGrZZG,rZGGG,I:s_xgQ&&&&&&wwwwwwwwwwwwwwwgwwg][{k...[{{Ok.....klwggggggggwgggggggggg",
"y6666666y6y6y6yy6yyyyy%FHz~iZ4H-FGZZGIIff%%%%%%B%%%B5Ed))}^)~#~~F15B''''5'Y'jGGGG,rG,,,,,:fs__g&QQ&&&wm&&wwwwgwgwwwggwgwwq{ckc..{k..k.....k!gnwwwwwggggggggggggg",
"66y6y66666y6y66y66y666y|Hzi~-H4i-rG1G:fsS%y%%%%%%%'9#h)ppoptVFI44:L'''5'''5'jGGG,,,,G,,G,::b__&QQQQQQ&&&&&&&&w&wwwwwgMMl!+++kk..[[+{k......]Mgggwwggwggggggggggg",
"66$6$666666666666666y666d1ZFH44Vz##ii|||9mmYmmYmmdiVppo^}}p)>VKf|9/gwmgdgg/g/u-,:,,-4~4r::::10dwdmwd9QQ&QQnn&&&&wnw0*+eO+{kcckkkc{+ck....kk+OO*@Mwggwgwggggggggg",
"$6$6$666$66666666666666yQK#VvXC)Np8}^^;;;;;;;;;^;2>po^}}}}p)hh>uS3hhN2222thhhY<K-----4---Hud(<a<a(XX(9QQQQQnn&nnnn9O+[{[[ckkkkck[{{ck...kkk[[{[[+lgggggwgggggggg",
"6$$$$$6$6$6$$6666666666$QK#Vv>X)p}^^^^;;;;;;;;;;8>pp^}}88})X>h>a113<X6NXthXYa<a/uF-HHHHHHHKa<<<mmaY(h3E55555QQQ5n5!{+OO{c[ckk{OO+@lqO{kk.k.kk.kk.Ogggwgggggggggg",
"$$$6$$$$$$$6$6$6$$$6$6$$'i3V>(tC)pp8^^^^;^;;;^^^X)p^^}8)>>4i>hhazSK<XtthXh(aaVa3iF----HHH4#3m3aVaa<<<<#0&55555QQQ5M+{{[c.kkk..k{ck{{{kkk.........{M&wgwgwggggggg",
"6$$$6$$6$6$$$$$$6$6$$$6$Y/V<XXCC8p88^^;^;;;;;;^}>)o^o)>X)~r,G3tt<11d<Xhh(<aa3a33#KFFHF-HKj/33m3m33maaaV#PEQ''''555nO[k...k....k[k.kcckk........k[*wwwwwwwggggwgg",
"$$$$$$$$$$$6$6$N$$$6$6$$YdV(X2CCNp8}}^^;;;;;^^^N>)}})V#>)4:bs|h)t#IKatthYaaV3333#i||uuuFuid3dmd33dddd3/33uU9Qggwwwwq[cck.kk.k.kkkc{{k....k.kkc[{*Mnww&wwwwwwgwww",
"6$$$$$$$6$$$6$$$6$$$$$$65/m<(CCp8^^^^^;^;;;;;;;)>)oo)4t>>>Gb_=mNtmfFmhhh(<aa333dd#Ku|uuij##dd/d33333V333/#z#i/3aa(a/LfAeeeee++++{OOO{ccck{OO*q!Mwn&n&n&&nwnwwwww",
"$$$6$$N$$$$$$$$$$$6$6$$$'/VhXXNpp}^;;;;;;;;;;^^2V>p)~>o))>-f_ihNt>A13hhhYamm3dd/#iju||ujiji##########3/V3V33##i#//##uFrGLIII:I:S:ffffAfJflnn5nnnnnnnn&n&&wnnw&&&",
"6$$$$$$$6$6$6$$6$6$$$$$6%#VX)NN88}^^;;;;;;;;^^})#>)h~>^8))4bS>tpt>fFmthh(aa3//#/#iu||u|ijii#i#iiii##33V333V3z##z/z##K-FrZ-ZrGGLGLGIII:::,l55555nnnnnnnnnnnw&n&&&",
"$$$$$$$$$$$$$6$$$6$6$6$$'#/vX)p}}^^^;;;;;;;;;^^84t)t>4)}))1Ga)NppzIuahYhamammzd//#j4|u|uiiji#iiii#//Va<aa3a3V3z3V3#iK-Z-Z--ZFrZrrZrrrrGGrEB5'5'555nn5nnnnnn&&&&&",
"$$6$$$6$$$6$$$$6$$6$$$6$%#3vXCNp8}}^;;;;;;;;;^;}~t>th~4>>4F>)ooop11dYhhh<aVm3//#/#iuKKKu|iiii###/#V333Vz3Vzaaz/33/iiK-rZZ------FZZ-ZZrrrZ9B'''''''555555n5n5n5nn",
"$$$$6$$$6$$$6$6$6$$6$$$$yYYii#jujj/3/dmmda<666tyY#>htt>#~a)ooopohLmYBBY'YYYYYmmmm&m9111ddwdwdg/w3g/#dmm3mm3dd3//uH4Zu/iijiiKu|uK|1ZFZjuj|wBBBBBB''B'''5'5555n555",
"$$$$$N$$$N$$N$$$$$$$$6$$$$yZZGs+R[fI:Abbbss966666M>>httt>$}}}}op1y66666666y66666666wD_]6666y666y66y6yyy6yy6y6y6yLbrx!yyyyyyyyy%%%B%%B%%ByB%BBBBB%'BB''BBB'5''555",
"$$$$$$$$$$$$$$$$6$6$$$$$$$yFFZART[_sbsbbbs_/$$6$66j>>htt$o^^}ooF7y666666666y6y6y6y6MJPAq9y66y66yy6y666y6yyyy6yyyLb-_Uyyyyyyyyyyyyy%y%y%%y%%%%%BBB%BB%'BBBB''''5'",
"$$$$$$$$$$$$6$6$$$6$6$$6$6yFHF1s_sb_ssfbbbs966$666yM~B))$}}o})rS]6666666y6666y666BU]=0J*066y66y66y6yyy6y66y6y6y67brx0yyyyyyyyyyy%yy%y%y%%y%y%y%%%%%%%BBBBBBBBBB'",
"$6$$$$$$$$$$$$$$$$$6yYwgg9j1F1G:f:S::bbbbbsg$6666$6%t#ah))$)~F1L]66666y66y6y66y6y%0qS0gBy666y6y66y666yyyy6yyyyyy0I,AQyy6yyyyyyyyyyyyyyyyyyyyy%yy%%y%%%B%B%BBBBBB",
"$$$$$p$$$$$$$$6$6$$QFi1LL1ui>3u|111GI:__sL966$6$66$Boot>m~>a/44LLy666666666666666666y'E]0yyy666yy6yyy6666y666yEJAS]AA@%yyyyyyyyyyyyyyyyy%y%yy%y%y%%y%y%%%%%%%%%%",
"$6$$$$$$$$$6$$$6$$$iFKHuFuza<z41LIL:s_TWR&Y''5nmnnnmoooo6)tta#4L7wQ5Q'n&wwwwwnw&&&nwwngM*E&ww&QQn5nwggggwggw&M_xbZu_TWUgwgwww&&&nQ&wwww&wnnByyyy%yy%y%yy%%y%%%%%",
"$$$$$6$$N$$$$$$$$$$jFH4KKF4FF1L11LIfs_T_*L@===U====joooo}N)t>#4SsLLP=P=P====!P=P]RRs==AA7L]L]]]]77777qqqqqqSJARD_:bxWW_A*AsAAAsAssAsss*s****lB%yyyy%yy%yyy%%%y%y",
"$$$$$$$$$$$$N$$$$66|HKKz4|KuFLG1GLGIs_x_e7LL@PPPPPP|o}}opN6ta#4SsPPPPPPPP@P@P]]]]7AAfSA*7777777L777S777S77qSqARD_bsxTW_*sAeses*es*e**esessss*J9y%yy%y%y%yyyy%y%y",
"$$$$$$$$$6$$$$6$6'EFuiu#H-44FGI1,I1Ibs__sAJS7q77777=oo^^op)t>~#beAJAJJJJJJJfAJAss*AfAJf__sAAAAAsAAsAsAsAssAssexx_bbxTWRse*sesesseeseeseseeseeee@ny%yy%yy%%y%y%%%",
"$$$$N$$$$$$$$$6%j00==FI::,Fi4-:fbesbAJJJLLLP==P==PP=)op)6)>(zK4b7L=PPPPPPPPPPPLJAA3KeJSA**AASqSJS77SJJJqSJAJAs+x_bbxT[esJ0jeeeee_e_eeeeeeeessssAJM%%yyy%y%yy%yy%",
"$6$$$6$$$$$$$%9U!UUU=Ls_xTxbb_TcWWc_bIILILLP=====PP1t)XaV##i4-rsfLLP=P=====UFU==SIzIs1AesSqqJJL77I7P7LJS]LPP7JeesIfeRRsqs:G_ebAAAsAsAsssAsAAAAAAAJ@&%yyyyy%%y%%y",
"$$$$$$$N$$6y9UU!=P!P]Js_DxsG:_DTWTTR_SG1LIILP==P=P==>>>~V###i4HISLLLPLPPPPPPPP1Pse1i|ij|U|j||||j|#j#||0|jE|=U=1U=FUP1PUPIGS_eAAAAAAAAAAAAs**A*s*AAAq0'y%%yyyyy%y",
"$$$$6$$$$6gUUUUPPPPPLLfAsssISbb_seAASI1G11LP=======-ahh>>VVVzi4L7PLPPPPPLPPP1PP17ff4~~~~>~V~4----444-r---rrGGGGGr,rr-4444r__sfAAJAAAAAAAAAAs*AAAAAAAAq9%y%y%%yy%",
"$$6$$$$$Y///dd#/g//d//#ii##///##ii//#/3m3aaaa>>h>)ttpp8o888op)))X)t))2tX)tX)t)t222XCCXX)X))))CC)C)XX))X)X2XXX)XXX>>vvvvvVzKujjj|||FF=F1=111111LLLILIII7Pn%yy%y%y",
"$p$$$6$wiVh<am<<<(((hh<h<hhhhthhhtt)tttt)))ppo8^}^^^^;;;;;;;;;;;;;;;;;;;;;;;;;^;;;;;;;;;;;;^;^;^^^;;;;;;;;;;;;;;;;;^^^^^}8}88pNCXCCXC>XX>>>vvvVVVVVV#iHF19%%y%y%",
"$$$$$$mFd3Vd3Vm<a<hhttXtXhttXtt2t2Ntp)p)NNpopo8}^^;^^;;;;;^;;;;;;;;;;;;;;;;;;;;;;;^;^^^^^^^^^^^^^;;;^;^;;;;;;;;;;;;;;;;;;;^^}8p)CCCXvvvvvVVVV~~zzzzii4uZZIE%yyyy",
"$$$$$$iiiiiiii/3V<(2CNNNoN8}8NNpNoo}pot>th))N))pN)N)N))N)222hh((a(ah>><a>aVaVVVVVVvVVVVVzVzzzzzVVzVV>VvVVVVvVVVVvvv>vvvvvvvvvvvVzzzizi4u4HH-Hu44-Z-rrZZGG,IQy%%%",
"$$N$$6iKKKiiii#dd3aXXtX2Npo}}}^}8}8}8o)h22222)NNoo888pN2NCN2((a333//###ii##ii4KKiKi4K4KKuHu|HHHuHHuuKHHHH4uK4uHHHKiiKK4KKKi4KK4uKHHHZ-ZZZGZGrZZrrrZGGGG,,I:&yyyy",
"$$$$$6KKKiiii////3V<(X222CNppppoo}}opN2XXXX2hX2)p88p8888ppN2(Yd3d/########i###iiiii#iKKKKKuuH||HuHHFHHHFFFZFHHHHHHu4uuuHHHHHHHHHFZHZFZZZZZZGZGrrrrrGG,G,,,Iwy%%%",
"$$$$$$uuKKiii//#d33m<hX2N$ppoppoo8op$2thXh2C2NNNpN)CCCCNC2C2h(3dd//#iiiii#iKiiiK#K#K###KKK||H||FuFHF|uHFHuHF|H|HKuuuiKKuKuKKKuuHHHHHFZZZGZGZGZGrZGrGGGG,,I:Q%yyy",
"$$$$$NjKKiiiiii##//3VhhXXCNp$opo8}pN2N22XX(XtX2CCCNNNNNpNNtX(a3V///9iii#####iiK#i###i#i#KuuKKu|u|uuuu|uKu|uKuKuuKuuKuHHuKuKHuHHHFHZFFZFZZZZZZZGGrGZGG,G,,,:Qy%%%",
"$$$$$$iuKKKiiijiii/d3avXt2NNCpp$pN6pCXXXXXXX2X22CNCCNN2NNp22XY3m3//####i#i##i#Ki#i###/iiiiiKjKuKuu|uHHF|HFFHF|HFFZHZFZHHHHHuuuuHHHHHFHFFHZFZZZZGGGGZ,GG,G,IQy%yy",
"$$$$$$duuuuuKKKKiii//daYhht2N2pNNNNC2Nt22tX2X2CCNNNNpNpNNC222t(V<m3d/9iiii#ii###izi##iKKKKj#KKu|||K||u|Z=ZZFZFFHFFHHuFHuKuKiKiKju|H|HHHHFZZZGZZGGZGZGGGGI,I'B%%B",
"$$6$$$YHHuu|HujuKKiii//3Vm<hXBX2X22N22tXXtXh2XXX2222X2Nt2X2XXt<33d/##ijjiiiii#iKKiKK#KjKjKuKj||FFFFu|FFFF11=FZFZFFFFHZFHuuHHHuHFFFFZZUZFZZ1ZGGGGGGGGGGG,,IL'BBBB",
"$$$$6$6%Y''YYQ&g9EPL7LLP0jjwddw|00U0U000E0U0UU0UU000E00E00000UUU0U!PPU=PPPPP==PP==P=P=PPPPPLPPPPPPPLPLLLLPLLILLP]LLL]LLILI7IILLILILI,LII7IS:S:f::::::IUP1U0BBBBB",
"$6$$$$$$$N$$66yy'Q*+{[[{*]@00@0eqllllEMlMMllMlMlllllllllllMMMlllllllllMlllMllllllMlMllllllllMMllMMMlMMlllMlMlllMMMMMMMMMMMMMll0000!]WkkkWWWkWWW.WWWc[@'''%'BBBBB",
"$$$6$$6$$$6$66%B5&*{{[c{+++_AO[.*lllMMlMllMMlllllllllllllllllllllllllllMllllllllllMlMMMMMMMMllMMMlMMMlMMMlMlMMMMMMMMMMMMMlMlllll!ll!W...kkWkk.k...kW[!'BBBBBBB%B",
"$6$$6$$6$666y%%'5&]{[c[{++{+AxWkqllllMlllllllllllllllllllllllllllllllllllllllMllllllllllllMMMMllMlMMMlMlMMMllllllMlMlMlllMlllllll!l!{..kkkkkkk.kkkkW[l5B5'BB%B%%",
"66$6$6666666y%B5n&9O[cccccc[{Wk+!lllllllllllllMlllllllllllllllllllllllllllllllMlllMMllMMMMllllMllMlllMlMlllllMMllllllllllllllll!llllO..kkWkkkkk..kkW{l5''BBBB%%%",
"6666$66666yyyB'5n&&M*+cckWWWc[O!ll!llllllllllllllllllllllllllllllllllllMlllllllllllMMMllllMMllMMlMlMlllllllllllllllllllllll0l!lll!l!*..kkkkkkk.kk.WW{l&5BB%BBBB%",
"6$666666666yBB5nn&&wgM!!@@@!@!llllMlllllllllllllllMlllMlllllllllMMllllMllMMMMMlMMlllllMllMllMlllllMlllllllllllll0llll0ll0lllll!lllll@...WWkkkk.kk.kkOlgn5BBB%%%%"};
